<svg width="110" height="31" viewBox="0 0 110 31" fill="none" xmlns="http://www.w3.org/2000/svg">
<g clip-path="url(#clip0_277_5519)">
<path d="M17.5344 20.2736L14.5906 20.7144C14.466 20.8397 13.8391 21.973 13.8391 22.6018C13.8391 23.2305 14.0896 23.4823 14.0896 23.8604C14.0896 23.8604 12.3361 24.6828 12.3984 24.7751C12.4608 24.8673 14.0261 24.3012 14.3401 24.6156C14.6541 24.93 14.8411 25.2444 14.8411 25.6225C14.8411 26.0007 15.2163 24.742 15.0917 24.6156C14.967 24.4892 15.8432 24.9926 16.4689 25.4961C16.6808 25.4961 15.9939 24.5017 15.2073 24.16C15.4895 24.1327 15.7763 24.1076 15.9157 24.1053C16.6922 24.1099 15.3342 23.9356 14.7935 23.8775C14.8264 23.4994 14.9035 22.6086 14.9035 22.4116C14.9035 22.1598 17.2827 20.6495 17.5332 20.2725L17.5344 20.2736Z" fill="#95253C"/>
<path d="M19.6631 18.9113L16.971 19.3145C16.8566 19.4296 16.2841 20.4661 16.2841 21.0413C16.2841 21.6165 16.5131 21.8466 16.5131 22.1929C16.5131 22.1929 14.9092 22.9446 14.967 23.0289C15.0248 23.1132 16.4564 22.5949 16.7421 22.8831C17.0288 23.1713 17.2 23.4583 17.2 23.8035C17.2 24.1486 17.5435 22.9982 17.429 22.8831C17.3145 22.7681 18.1159 23.2282 18.6895 23.6884C18.8833 23.6884 18.2553 22.7795 17.5355 22.4662C17.794 22.4412 18.0558 22.4184 18.1839 22.4161C18.8935 22.4207 17.6523 22.2601 17.1569 22.2077C17.1875 21.8625 17.2578 21.047 17.2578 20.867C17.2578 20.6369 19.4342 19.2553 19.6631 18.9102V18.9113Z" fill="#95253C"/>
<path d="M21.5414 3.91373C21.5414 3.91373 21.5663 2.8886 21.4167 2.27807C21.1662 0.767712 20.5405 -0.112763 18.0354 0.0125313C15.5303 0.137825 12.7747 5.67582 12.7747 8.31838C7.89042 11.9679 9.01714 12.723 6.01218 15.9955C3.63179 17.3794 0 20.1484 0 20.4001C0 20.6519 1.25254 21.407 2.25457 21.407C3.2566 21.407 5.88636 20.6519 6.51319 20.6519C7.14003 20.6519 5.51116 23.7979 5.51116 24.0496C5.51116 24.3013 7.51522 23.6726 8.51725 23.1691C9.51928 22.6657 10.8965 21.6588 12.2749 21.6588C13.6532 21.6588 18.9298 21.6417 20.791 19.7714C22.7327 17.8202 22.795 14.7368 22.795 13.7299C22.795 12.723 22.0435 10.2058 22.0435 9.32529C22.0435 8.44481 22.1682 7.18618 22.1682 6.55629C22.1682 5.92641 21.5425 4.7942 21.5425 3.91373H21.5414Z" fill="#363636"/>
<path d="M20.0383 5.80104C20.0383 5.80104 19.5997 4.22803 20.8522 4.22803C21.8542 4.22803 21.852 4.76565 21.852 4.76565L20.0372 5.80104H20.0383Z" fill="#95253C"/>
<path d="M20.0383 6.05287C20.0383 6.05287 19.9136 4.66895 21.165 4.66895C22.4164 4.66895 23.6701 5.67585 23.6701 6.68276C21.165 6.68276 20.0383 6.68276 20.0383 6.05401V6.05287Z" fill="#727272"/>
<path d="M12.7747 8.31836C10.3955 8.31836 6.88839 14.7368 5.13484 15.9955C3.38128 17.2541 0 20.1484 0 20.4001C0 20.6518 1.25254 21.407 2.25457 21.407C3.2566 21.407 5.88636 20.6518 6.51319 20.6518C7.14003 20.6518 5.51116 23.7979 5.51116 24.0496C5.51116 24.3013 7.49822 23.6361 8.51725 23.1691C17.2839 19.1415 19.5385 8.44479 12.7759 8.31836H12.7747Z" fill="#727272"/>
<path d="M39.0928 9.35026C38.1282 8.38094 35.2343 7.73511 33.9477 7.73511C32.6612 7.73511 31.3747 10.3207 31.3747 9.48467C31.3747 8.64861 29.6064 7.57336 28.8016 8.38094C27.9979 9.18852 29.7662 23.8912 29.7662 23.8912C29.7662 23.8912 30.4089 30.9999 31.3735 30.9999C32.4991 30.9999 32.4991 29.8689 32.4991 29.8689L32.1772 19.8522C32.1772 19.8522 33.7845 21.145 36.0357 21.145C38.2869 21.145 40.8588 17.2677 40.8588 15.3291C40.8588 13.3904 40.0551 10.3207 39.0905 9.3514L39.0928 9.35026ZM37.0026 18.5594C35.3952 18.8829 33.4649 18.5594 32.8222 17.2666C32.1795 15.9738 31.8575 14.6809 31.8575 14.3586C31.8575 14.3586 32.5002 10.4813 34.4306 10.1578C36.3599 9.83435 38.3379 11.4506 38.4739 12.2582C38.611 13.0658 38.611 18.2359 37.0026 18.5594Z" fill="#EA9941"/>
<path d="M54.2071 19.0446C53.8852 17.7518 52.6791 18.5594 51.7553 19.3681C50.8315 20.1757 48.5803 21.145 46.6511 19.8533C44.7218 18.5605 44.3999 16.6219 44.8828 16.1378C44.8828 16.1378 52.279 15.4919 52.9217 15.1685C53.5644 14.845 53.8863 9.39696 48.9022 9.21244C43.9181 9.02791 42.4706 14.3597 42.4706 15.976C42.4706 17.5923 43.9181 21.9537 47.4547 22.6007C50.9924 23.2465 54.529 20.3385 54.2082 19.0457L54.2071 19.0446ZM48.6993 10.954C51.0706 11.1032 51.795 13.3904 51.1523 13.7128C50.5096 14.0363 48.2584 14.3586 47.2938 14.3586C46.3291 14.3586 44.7207 15.0044 44.7207 14.0351C44.7207 13.0658 46.328 10.8037 48.6993 10.9529V10.954Z" fill="#EA9941"/>
<path d="M65.3008 12.0965C65.3008 12.0965 65.9435 11.773 65.6228 10.8037C65.302 9.83435 63.3999 8.90034 60.9742 9.2056C58.5485 9.51086 55.6546 11.773 55.6546 15.0044C55.6546 18.2359 57.5838 21.4673 60.4777 21.4673C63.3716 21.4673 65.6228 20.498 65.6228 19.5287C65.6228 18.5594 64.9801 17.9135 64.6581 17.9135C64.3362 17.9135 64.0358 19.3681 62.0964 19.3681C60.1569 19.3681 57.7108 19.6289 57.7108 14.5705C57.9058 12.0976 60.4789 11.1283 61.4435 11.1283C62.4081 11.1283 63.2118 10.9666 63.6946 11.4518C64.1775 11.937 64.6593 12.0976 65.302 12.0976L65.3008 12.0965Z" fill="#EA9941"/>
<path d="M69.4813 3.04923C69.4813 3.04923 69.4813 0.463623 70.4459 0.463623C72.6971 0.463623 71.0886 9.83447 71.0886 14.0352C71.0886 14.0352 76.3028 10.0737 77.2334 10.1158C78.164 10.158 78.4111 10.7651 78.2876 10.9462C78.164 11.1273 73.6617 15.0046 73.6617 15.0046C73.6617 15.0046 78.8067 21.4674 78.8067 22.4368C78.8067 23.4061 78.164 23.7296 77.5202 23.4061C76.8764 23.0826 71.7325 16.6197 71.7325 16.6197L71.0898 17.2655C71.0898 17.2655 71.0648 22.2978 70.4346 22.6896C69.8032 23.0815 69.1605 22.7591 68.8386 22.1121C68.5167 21.4663 69.4813 3.04696 69.4813 3.04696V3.04923Z" fill="#EA9941"/>
<path d="M82.2164 11.6728C82.2164 11.6728 82.3444 7.89575 83.631 7.89575C84.9175 7.89575 84.5956 11.2001 84.5956 12.133C84.5956 13.0658 85.2383 21.7909 84.2737 21.7909C83.3091 21.7909 82.7491 22.1143 82.3864 21.145C82.0237 20.1757 82.2164 11.6728 82.2164 11.6728V11.6728Z" fill="#EA9941"/>
<path d="M85.1 1.73809C84.599 0.824579 83.3408 -0.0296974 81.5804 1.73809C79.8212 3.50587 83.3861 6.81249 83.3861 6.81249C86.9522 4.2246 85.601 2.65159 85.1 1.73809V1.73809ZM84.2091 3.67331C83.852 4.20979 82.8693 3.95693 82.5145 3.52637C82.2141 3.16302 82.2424 2.80081 82.6006 2.3862C82.9588 1.97159 83.8169 1.99779 84.2601 2.38506C84.7044 2.77233 84.5661 3.13568 84.2091 3.67217V3.67331Z" fill="#95253C"/>
<path d="M91.9918 9.51197C94.2702 9.49374 95.2076 10.4813 95.5295 11.4506C96.0385 12.9837 94.3711 12.4359 93.9335 11.9962C93.496 11.5565 92.0292 11.249 92.0292 11.9962C91.9918 14.0362 96.4941 14.3597 96.8149 16.9442C97.1368 19.8521 96.8149 21.7908 93.6603 22.1655C91.0442 22.4765 87.4895 18.8828 88.4541 17.9135C89.4187 16.9442 91.3854 18.8304 92.3126 19.5286C93.5991 20.498 94.2418 20.1745 94.5638 19.2052C94.8857 18.2358 95.5284 16.943 91.9941 15.3074C88.2625 13.5795 89.7123 9.52905 91.9907 9.51197H91.9918Z" fill="#EA9941"/>
<path d="M102.2 11.9962C102.2 11.9962 103.247 9.51196 106.14 9.83545C109.034 10.1589 109.999 14.3597 109.999 15.9749C109.999 17.59 109.999 24.3764 109.356 24.6999C108.713 25.0234 107.749 24.3764 107.749 24.3764C107.749 24.3764 108.713 14.0362 107.106 12.7434C105.499 11.4506 102.762 11.5394 102.201 15.6958C101.64 19.8521 102.283 24.3764 101.318 24.3764C100.354 24.3764 99.651 24.3354 99.651 15.3085C99.651 6.28166 99.0672 0.788086 100.353 0.788086C101.638 0.788086 101.96 1.43392 101.96 2.40324C101.96 3.37256 102.2 11.9962 102.2 11.9962V11.9962Z" fill="#EA9941"/>
</g>
<defs>
<clipPath id="clip0_277_5519">
<rect width="110" height="31" fill="white"/>
</clipPath>
</defs>
</svg>
